<?xml version="1.0" encoding="utf-8"?>
<!-- Generator: Adobe Illustrator 26.2.1, SVG Export Plug-In . SVG Version: 6.00 Build 0)  -->
<svg version="1.1" id="Layer_1" xmlns="http://www.w3.org/2000/svg" xmlns:xlink="http://www.w3.org/1999/xlink" x="0px" y="0px"
	 viewBox="0 0 1080 1080" style="enable-background:new 0 0 1080 1080;" xml:space="preserve">
<style type="text/css">
	.st0{fill:#EE4994;}
</style>
<g>
	<g>
		<path class="st0" d="M1000.29,615.12c0,140.49-114.3,254.77-254.77,254.77H464.39V747.63h281.13
			c73.07,0,132.52-59.44,132.52-132.52S818.59,482.6,745.52,482.6H610.37V360.34h135.15C886,360.34,1000.29,474.64,1000.29,615.12z"
			/>
	</g>
</g>
<g>
	<g>
		<path class="st0" d="M172.86,469c0,73.07,59.44,132.52,132.51,132.52h158.88v-94.3h122.26v216.56H305.38
			C164.9,723.78,50.61,609.5,50.61,469c0-140.48,114.3-254.77,254.77-254.77h281.13v122.26H305.38
			C232.31,336.49,172.86,395.93,172.86,469z"/>
	</g>
</g>
<rect x="464.39" y="360.34" class="st0" width="122.12" height="122.26"/>
<rect x="464.25" y="360.34" class="st0" width="0.13" height="122.26"/>
</svg>
